# xmcd
#
# Track frame offsets:
#	150
#	29565
#	52423
#	73903
#	96065
#	102340
#	121373
#	139020
#	162383
#
# Disc length: 2613 seconds
#
# Revision: 3
# Processed by: cddbd v1.5.2PL0 Copyright (c) Steve Scherf et al.
# Submitted via: EasyCDDAExtractor 16.0.6.1
#
DISCID=870a3309
DTITLE=Eagles - C-031 Hotel California
DYEAR=1976
DGENRE=Rhythmic Soul
TTITLE0=Hotel California
TTITLE1=New Kid In Town
TTITLE2=Life In The Fast Lane
TTITLE3=Wasted Time
TTITLE4=Wasted Time (Reprise)
TTITLE5=Victim Of Love
TTITLE6=Pretty Maids All In A Row
TTITLE7=Try And Love Again
TTITLE8=The Last Resort
EXTD=YEAR: 1976 ID3G: 118
EXTT0=
EXTT1=
EXTT2=
EXTT3=
EXTT4=
EXTT5=
EXTT6=
EXTT7=
EXTT8=
PLAYORDER=
